<?xml version="1.0" encoding="utf-8"?>
<!-- Generator: Adobe Illustrator 23.0.4, SVG Export Plug-In . SVG Version: 6.00 Build 0)  -->
<svg version="1.1" xmlns="http://www.w3.org/2000/svg" xmlns:xlink="http://www.w3.org/1999/xlink" x="0px" y="0px"
	 viewBox="0 0 1296.3 396.8" style="enable-background:new 0 0 1296.3 396.8;" xml:space="preserve">
<style type="text/css">
	.st0{display:none;}
	.st1{display:inline;opacity:0.3;}
	.st2{fill:none;stroke:#000000;stroke-miterlimit:10;}
	.st3{fill:#15274C;}
	.st4{fill:#82B2D1;}
	.st5{fill:none;stroke:#15274C;stroke-miterlimit:10;}
	.st6{clip-path:url(#SVGID_2_);}
	.st7{fill:#FFFFFF;}
	.st8{fill:none;stroke:#000000;}
	.st9{clip-path:url(#SVGID_4_);}
	.st10{clip-path:url(#SVGID_6_);}
	.st11{fill:none;stroke:#000000;stroke-miterlimit:10;stroke-dasharray:11.8724,11.8724;}
	.st12{fill:none;stroke:#15274C;stroke-miterlimit:10;stroke-dasharray:11.8724,11.8724;}
	.st13{clip-path:url(#SVGID_8_);}
	.st14{fill:none;stroke:#000000;stroke-miterlimit:10;stroke-dasharray:11.9009,11.9009;}
	.st15{fill:none;stroke:#000000;stroke-miterlimit:10;stroke-dasharray:12.0079,12.0079;}
	.st16{fill:#FF0C00;}
	.st17{opacity:0.6;}
	.st18{clip-path:url(#SVGID_10_);}
	.st19{clip-path:url(#SVGID_12_);}
	.st20{fill:#DD1B17;}
	.st21{fill:#87B9D8;}
	.st22{fill:#86B8D7;}
	.st23{fill:#85B7D6;}
	.st24{fill:#85B6D5;}
	.st25{fill:#84B5D4;}
	.st26{fill:#83B4D3;}
	.st27{fill:#82B3D2;}
	.st28{fill:#81B1D0;}
	.st29{fill:#80B0CF;}
	.st30{fill:#7FAFCE;}
	.st31{fill:#7EAECD;}
	.st32{fill:#7EADCC;}
	.st33{fill:#7DACCC;}
	.st34{fill:#7CABCB;}
	.st35{fill:#7BAACA;}
	.st36{fill:#7BA9C9;}
	.st37{fill:#7AA8C8;}
	.st38{fill:#79A7C7;}
	.st39{fill:#78A6C6;}
	.st40{fill:#77A5C5;}
	.st41{fill:#77A4C4;}
	.st42{fill:#76A3C3;}
	.st43{fill:#75A2C2;}
	.st44{fill:#74A1C1;}
	.st45{fill:#73A0C0;}
	.st46{fill:#739FBF;}
	.st47{fill:#729EBE;}
	.st48{fill:#719DBD;}
	.st49{fill:#709CBC;}
	.st50{fill:#709BBB;}
	.st51{fill:#6F9ABA;}
	.st52{fill:#6E99B9;}
	.st53{fill:#6D98B8;}
	.st54{fill:#6C97B7;}
	.st55{fill:#6C96B6;}
	.st56{fill:#6B95B5;}
	.st57{fill:#6A94B5;}
	.st58{fill:#6993B4;}
	.st59{fill:#6992B3;}
	.st60{fill:#6891B2;}
	.st61{fill:#6790B1;}
	.st62{fill:#668FB0;}
	.st63{fill:#658EAF;}
	.st64{fill:#658DAE;}
	.st65{fill:#648CAD;}
	.st66{fill:#638BAC;}
	.st67{fill:#628AAB;}
	.st68{fill:#6289AA;}
	.st69{fill:#6188A9;}
	.st70{fill:#6087A8;}
	.st71{fill:#5F86A7;}
	.st72{fill:#5E85A6;}
	.st73{fill:#5E84A5;}
	.st74{fill:#5D83A4;}
	.st75{fill:#5C82A3;}
	.st76{fill:#5B81A2;}
	.st77{fill:#5A80A1;}
	.st78{fill:#5A7FA0;}
	.st79{fill:#597E9F;}
	.st80{fill:#587D9E;}
	.st81{fill:#577C9E;}
	.st82{fill:#577B9D;}
	.st83{fill:#567A9C;}
	.st84{fill:#55799B;}
	.st85{fill:#54789A;}
	.st86{fill:#537799;}
	.st87{fill:#537698;}
	.st88{fill:#527597;}
	.st89{fill:#517496;}
	.st90{fill:#507395;}
	.st91{fill:#507294;}
	.st92{fill:#4F7193;}
	.st93{fill:#4E7092;}
	.st94{fill:#4D6F91;}
	.st95{fill:#4C6E90;}
	.st96{fill:#4C6D8F;}
	.st97{fill:#4B6C8E;}
	.st98{fill:#4A6B8D;}
	.st99{fill:#496A8C;}
	.st100{fill:#49698B;}
	.st101{fill:#48688A;}
	.st102{fill:#476789;}
	.st103{fill:#466688;}
	.st104{fill:#456587;}
	.st105{fill:#456486;}
	.st106{fill:#446386;}
	.st107{fill:#436285;}
	.st108{fill:#426184;}
	.st109{fill:#426083;}
	.st110{fill:#415F82;}
	.st111{fill:#405E81;}
	.st112{fill:#3F5D80;}
	.st113{fill:#3E5C7F;}
	.st114{fill:#3E5B7E;}
	.st115{fill:#3D5A7D;}
	.st116{fill:#3C597C;}
	.st117{fill:#3B587B;}
	.st118{fill:#3A577A;}
	.st119{fill:#3A5679;}
	.st120{fill:#395578;}
	.st121{fill:#385477;}
	.st122{fill:#375376;}
	.st123{fill:#375275;}
	.st124{fill:#365174;}
	.st125{fill:#355073;}
	.st126{fill:#344F72;}
	.st127{fill:#334E71;}
	.st128{fill:#334D70;}
	.st129{fill:#324C6F;}
	.st130{fill:#314B6F;}
	.st131{fill:#304A6E;}
	.st132{fill:#30496D;}
	.st133{fill:#2F486C;}
	.st134{fill:#2E476B;}
	.st135{fill:#2D466A;}
	.st136{fill:#2C4569;}
	.st137{fill:#2C4468;}
	.st138{fill:#2B4367;}
	.st139{fill:#2A4266;}
	.st140{fill:#294165;}
	.st141{fill:#294064;}
	.st142{fill:#283F63;}
	.st143{fill:#273E62;}
	.st144{fill:#263D61;}
	.st145{fill:#253C60;}
	.st146{fill:#253B5F;}
	.st147{fill:#243A5E;}
	.st148{fill:#23395D;}
	.st149{fill:#22385C;}
	.st150{fill:#21375B;}
	.st151{fill:#21365A;}
	.st152{fill:#203559;}
	.st153{fill:#1F3458;}
	.st154{fill:#1E3358;}
	.st155{fill:#1E3257;}
	.st156{fill:#1D3156;}
	.st157{fill:#1C3055;}
	.st158{fill:#1B2F54;}
	.st159{fill:#1A2E53;}
	.st160{fill:#1A2D52;}
	.st161{fill:#192C51;}
	.st162{fill:#182B50;}
	.st163{fill:#172A4F;}
	.st164{fill:#17294E;}
	.st165{fill:#16284D;}
	.st166{fill:none;stroke:#15274C;stroke-miterlimit:10;stroke-dasharray:12.0079,12.0079;}
	.st167{fill:#41516D;}
	.st168{fill:none;}
	.st169{clip-path:url(#SVGID_14_);}
	.st170{fill:#243956;}
	.st171{clip-path:url(#SVGID_16_);}
	.st172{fill:none;stroke:#15274C;}
	.st173{clip-path:url(#SVGID_18_);}
	.st174{fill:#D4ECF9;}
	.st175{clip-path:url(#SVGID_20_);}
	.st176{fill:none;stroke:#DD1B17;stroke-width:2;stroke-miterlimit:10;}
	.st177{clip-path:url(#SVGID_22_);}
	.st178{clip-path:url(#SVGID_24_);}
	.st179{fill:none;stroke:#719DBD;}
	.st180{fill:none;stroke:#41516D;}
	.st181{fill:url(#SVGID_25_);}
	.st182{fill:none;stroke:#FFFFFF;stroke-width:1.3;stroke-linecap:round;stroke-linejoin:round;}
	.st183{fill:url(#SVGID_26_);}
</style>
<g id="Ebene_2" class="st0">
</g>
<g id="Ebene_1">
	<g>
		<g>
			<path class="st3" d="M451.6,116.2c3.7,3,5.5,8,5.5,15v37.6h-15v-34c0-2.9-0.4-5.2-1.2-6.8c-1.4-2.9-4.1-4.3-8.1-4.3
				c-4.9,0-8.3,2.1-10.1,6.3c-1,2.2-1.4,5.1-1.4,8.5v30.2h-14.6v-55.8h14.2v8.2c1.9-2.9,3.6-4.9,5.3-6.2c3-2.3,6.8-3.4,11.4-3.4
				C443.3,111.7,448,113.2,451.6,116.2z"/>
			<path class="st3" d="M466.3,132.7h28.6v13.8h-28.6V132.7z"/>
			<path class="st3" d="M536.9,115c1.7,1.3,3.4,3.4,5.1,6.4v-8.3h14.1V191h-14.5V162c-1.1,2.3-3,4.3-5.6,6
				c-2.6,1.8-6.3,2.6-10.8,2.6c-6.5,0-12-2.6-16.5-7.7c-4.5-5.2-6.8-12.1-6.8-20.7c0-9.3,2.3-16.7,6.8-22.3
				c4.6-5.6,10.2-8.4,16.9-8.4C530.3,111.5,534.1,112.7,536.9,115z M540.1,151.6c1.4-2.8,2.1-6.4,2.1-10.8c0-3.4-0.6-6.5-1.7-9.2
				c-2.1-4.9-5.8-7.3-11-7.3c-3.7,0-6.7,1.4-8.9,4.3c-2.2,2.8-3.4,7.2-3.4,12.9c0,3.9,0.5,7,1.5,9.5c1.9,4.7,5.5,7,10.7,7
				C534.4,158.1,537.9,156,540.1,151.6z"/>
			<path class="st3" d="M584.4,113v33.7c0,3.2,0.4,5.6,1.1,7.2c1.3,2.8,3.9,4.3,7.8,4.3c5,0,8.4-2,10.2-6c1-2.2,1.4-5.1,1.4-8.7V113
				h14.8v55.9h-14.2V161c-0.1,0.2-0.5,0.7-1,1.5c-0.5,0.9-1.2,1.6-1.9,2.3c-2.3,2.1-4.5,3.5-6.6,4.2c-2.1,0.8-4.6,1.1-7.5,1.1
				c-8.2,0-13.8-3-16.7-8.9c-1.6-3.3-2.4-8.1-2.4-14.5V113H584.4z"/>
			<path class="st3" d="M668.3,114.1c3.9,1.7,7.1,4.5,9.7,8.3c2.3,3.3,3.8,7.2,4.5,11.6c0.4,2.6,0.6,6.3,0.5,11.1h-40.7
				c0.2,5.6,2.2,9.5,5.8,11.8c2.2,1.4,4.9,2.1,8.1,2.1c3.3,0,6-0.9,8.1-2.6c1.1-0.9,2.1-2.2,3-3.8h14.9c-0.4,3.3-2.2,6.7-5.4,10.1
				c-5,5.4-12,8.2-21,8.2c-7.4,0-14-2.3-19.7-6.9c-5.7-4.6-8.5-12-8.5-22.4c0-9.7,2.6-17.1,7.7-22.3c5.1-5.2,11.8-7.7,20-7.7
				C660,111.5,664.4,112.4,668.3,114.1z M646.4,126.8c-2.1,2.1-3.4,5-3.9,8.7h25.2c-0.3-3.9-1.6-6.8-3.9-8.8c-2.3-2-5.2-3-8.7-3
				C651.4,123.6,648.5,124.6,646.4,126.8z"/>
			<path class="st3" d="M730.9,114.1c3.9,1.7,7.1,4.5,9.7,8.3c2.3,3.3,3.8,7.2,4.5,11.6c0.4,2.6,0.6,6.3,0.5,11.1h-40.7
				c0.2,5.6,2.2,9.5,5.8,11.8c2.2,1.4,4.9,2.1,8.1,2.1c3.3,0,6-0.9,8.1-2.6c1.1-0.9,2.1-2.2,3-3.8h14.9c-0.4,3.3-2.2,6.7-5.4,10.1
				c-5,5.4-12,8.2-21,8.2c-7.4,0-14-2.3-19.7-6.9c-5.7-4.6-8.5-12-8.5-22.4c0-9.7,2.6-17.1,7.7-22.3c5.1-5.2,11.8-7.7,20-7.7
				C722.6,111.5,727,112.4,730.9,114.1z M709,126.8c-2.1,2.1-3.4,5-3.9,8.7h25.2c-0.3-3.9-1.6-6.8-3.9-8.8c-2.3-2-5.2-3-8.7-3
				C714,123.6,711.1,124.6,709,126.8z"/>
			<path class="st3" d="M797.9,116.2c3.7,3,5.5,8,5.5,15v37.6h-15v-34c0-2.9-0.4-5.2-1.2-6.8c-1.4-2.9-4.1-4.3-8.1-4.3
				c-4.9,0-8.3,2.1-10.1,6.3c-1,2.2-1.4,5.1-1.4,8.5v30.2h-14.6v-55.8h14.2v8.2c1.9-2.9,3.6-4.9,5.3-6.2c3-2.3,6.8-3.4,11.4-3.4
				C789.5,111.7,794.2,113.2,797.9,116.2z"/>
			<path class="st3" d="M826.2,151c0.3,2.6,1,4.4,2,5.5c1.8,1.9,5.2,2.9,10.1,2.9c2.9,0,5.2-0.4,6.9-1.3c1.7-0.9,2.5-2.1,2.5-3.8
				c0-1.6-0.7-2.9-2.1-3.7c-1.4-0.9-6.5-2.3-15.3-4.4c-6.4-1.6-10.8-3.5-13.4-5.9c-2.6-2.3-3.9-5.7-3.9-10c0-5.2,2-9.6,6.1-13.3
				c4.1-3.7,9.8-5.6,17.1-5.6c7,0,12.7,1.4,17.1,4.2c4.4,2.8,6.9,7.6,7.6,14.4h-14.6c-0.2-1.9-0.7-3.4-1.6-4.5c-1.6-2-4.4-3-8.2-3
				c-3.2,0-5.5,0.5-6.8,1.5c-1.4,1-2,2.2-2,3.5c0,1.7,0.7,2.9,2.2,3.6c1.4,0.8,6.5,2.1,15.3,4c5.8,1.4,10.2,3.4,13.1,6.2
				c2.9,2.8,4.3,6.3,4.3,10.5c0,5.5-2.1,10.1-6.2,13.6c-4.1,3.5-10.5,5.3-19.1,5.3c-8.8,0-15.3-1.9-19.5-5.6
				c-4.2-3.7-6.3-8.4-6.3-14.2H826.2z"/>
			<path class="st3" d="M945.2,119c4.6,4.8,6.8,11.9,6.8,21.2c0,9.8-2.2,17.3-6.7,22.5c-4.5,5.2-10.2,7.7-17.2,7.7
				c-4.5,0-8.2-1.1-11.1-3.3c-1.6-1.2-3.2-3-4.7-5.4v29.1h-14.5V113h14v8.3c1.6-2.4,3.3-4.3,5.1-5.7c3.3-2.5,7.2-3.7,11.7-3.7
				C935.1,111.8,940.7,114.2,945.2,119z M934,129.5c-2-3.3-5.2-5-9.7-5c-5.4,0-9,2.5-11,7.5c-1,2.7-1.6,6-1.6,10.2
				c0,6.5,1.7,11.1,5.2,13.7c2.1,1.5,4.5,2.3,7.4,2.3c4.1,0,7.2-1.6,9.4-4.7c2.2-3.1,3.2-7.3,3.2-12.6
				C937,136.6,936,132.8,934,129.5z"/>
			<path class="st3" d="M993.4,111.7c0.2,0,0.6,0,1.3,0.1v15c-0.9-0.1-1.7-0.2-2.5-0.2c-0.7,0-1.3-0.1-1.7-0.1
				c-5.9,0-9.8,1.9-11.8,5.7c-1.1,2.2-1.7,5.5-1.7,9.9v26.7h-14.7V113h13.9v9.7c2.3-3.7,4.2-6.3,5.9-7.6c2.7-2.3,6.3-3.4,10.7-3.4
				C993,111.7,993.2,111.7,993.4,111.7z"/>
			<path class="st3" d="M1047.8,162c-4.7,5.8-11.9,8.7-21.5,8.7c-9.6,0-16.8-2.9-21.5-8.7s-7.1-12.8-7.1-21c0-8.1,2.4-15,7.1-21
				s11.9-8.9,21.5-8.9c9.6,0,16.8,3,21.5,8.9s7.1,12.9,7.1,21C1054.8,149.2,1052.5,156.2,1047.8,162z M1036.1,154
				c2.3-3,3.4-7.4,3.4-13c0-5.6-1.1-9.9-3.4-12.9c-2.3-3-5.6-4.5-9.8-4.5c-4.3,0-7.6,1.5-9.9,4.5c-2.3,3-3.5,7.3-3.5,12.9
				c0,5.6,1.2,9.9,3.5,13c2.3,3,5.6,4.6,9.9,4.6C1030.5,158.5,1033.8,157,1036.1,154z"/>
			<path class="st3" d="M1113,119.7c4.2,5.3,6.3,12.1,6.3,20.5c0,8.7-2.1,15.9-6.2,21.6c-4.1,5.7-9.9,8.6-17.3,8.6
				c-4.6,0-8.4-0.9-11.2-2.8c-1.7-1.1-3.5-3-5.5-5.7v7h-14.4V93.4h14.6v26.9c1.9-2.6,3.9-4.6,6.1-5.9c2.6-1.7,6-2.6,10.1-2.6
				C1103,111.8,1108.8,114.4,1113,119.7z M1100.8,153.8c2.1-3,3.2-7,3.2-12c0-4-0.5-7.2-1.6-9.8c-2-4.9-5.6-7.4-10.9-7.4
				c-5.3,0-9,2.4-11,7.2c-1,2.6-1.6,5.9-1.6,9.9c0,4.8,1.1,8.8,3.2,11.9c2.1,3.1,5.4,4.7,9.8,4.7
				C1095.7,158.3,1098.7,156.8,1100.8,153.8z"/>
			<path class="st3" d="M1142.2,168.9h-14.6V93.3h14.6V168.9z"/>
			<path class="st3" d="M1192.9,114.1c3.9,1.7,7.1,4.5,9.7,8.3c2.3,3.3,3.8,7.2,4.5,11.6c0.4,2.6,0.6,6.3,0.5,11.1h-40.7
				c0.2,5.6,2.2,9.5,5.8,11.8c2.2,1.4,4.9,2.1,8.1,2.1c3.3,0,6-0.9,8.1-2.6c1.1-0.9,2.1-2.2,3-3.8h14.9c-0.4,3.3-2.2,6.7-5.4,10.1
				c-5,5.4-12,8.2-21,8.2c-7.4,0-14-2.3-19.7-6.9c-5.7-4.6-8.5-12-8.5-22.4c0-9.7,2.6-17.1,7.7-22.3c5.1-5.2,11.8-7.7,20-7.7
				C1184.6,111.5,1189,112.4,1192.9,114.1z M1171.1,126.8c-2.1,2.1-3.4,5-3.9,8.7h25.2c-0.3-3.9-1.6-6.8-3.9-8.8c-2.3-2-5.2-3-8.7-3
				C1176,123.6,1173.1,124.6,1171.1,126.8z"/>
			<path class="st3" d="M1284.6,113.2c2.4,1,4.6,2.6,6.5,5c1.6,1.9,2.6,4.3,3.2,7.2c0.3,1.9,0.5,4.6,0.5,8.3l-0.1,35.2h-15v-35.6
				c0-2.1-0.3-3.9-1-5.2c-1.3-2.6-3.7-3.9-7.2-3.9c-4,0-6.8,1.7-8.4,5c-0.8,1.8-1.2,3.9-1.2,6.4v33.3h-14.7v-33.3
				c0-3.3-0.3-5.7-1-7.2c-1.2-2.7-3.6-4-7.2-4c-4.2,0-7,1.4-8.4,4c-0.8,1.5-1.2,3.8-1.2,6.9v33.6h-14.8v-55.8h14.2v8.2
				c1.8-2.9,3.5-5,5.1-6.2c2.8-2.2,6.5-3.3,11-3.3c4.3,0,7.7,0.9,10.4,2.8c2.1,1.7,3.7,4,4.8,6.7c1.9-3.3,4.3-5.7,7.1-7.2
				c3-1.5,6.4-2.3,10-2.3C1279.8,111.8,1282.2,112.2,1284.6,113.2z"/>
		</g>
		<g>
			<g>
				<path class="st167" d="M359.2,187.7l9.7,0.5c0,0,11.7,1.3,9.2,10.5c-1.2,4.3-8.3,5.7-17.3,5.5c-1.4-2.8-2.4-6.4-2.3-11.2
					C358.5,191.2,358.8,189.4,359.2,187.7z"/>
				<path class="st167" d="M318.8,185.7l-3.6-0.2c0,0-4.8-0.4-6.7,5.2c-1.9,5.6,7.8,6.7,7.8,6.7s1.1,0.3,3.1,0.7"/>
				<path class="st167" d="M319.3,198.2c-0.2,3.8-0.6,7-1.2,9c-1.9,6.3-15.5,4.3-14.9,10.8c0.7,6.5,3,4.5,13.8,5.2
					c4.2,0.3,10.6,0.9,16.8,1.5c-0.8-2.1-1.6-3.8-2.4-5.3c-2.4-4.6-6.3-5-5.2-6.4c0.3-0.4,2.6-3.6,3-6.2c0.3-1.8,0.5-4,0.8-6.4
					C325.5,199.5,321.7,198.7,319.3,198.2z"/>
				<path class="st48" d="M319.9,284c-0.1,0.3-8.5,27.3-7.7,29.5c0.8,2.2,10.3,1.7,13.4,0.6c3.1-1.1,11.4-43.3,11.7-63.9
					c0.2-12-1.6-20-3.7-25.6l-11-1c0,0,2.7,37.8-0.4,53.1C321.9,278.9,321,281.4,319.9,284"/>
				<path class="st167" d="M375.6,320c-1.1-4.2-22-33.5-24.3-48s3.6-44.7,3.6-44.7s0-0.2,0-0.7c-1.5-0.1-2.4-0.2-2.4-0.2
					s-9.2-1-18.9-1.9c2.1,5.6,3.8,13.6,3.7,25.6c-0.3,20.7-8.7,62.8-11.7,63.9c-3.1,1.1-12.6,1.7-13.4-0.6
					c-0.8-2.2,7.6-29.2,7.7-29.5c-6,14.5-19.9,33.7-19.4,37.9c0.6,5,19,5,34.6,4.5c15.6-0.6,40-5.8,40-5.8"/>
				<path class="st48" d="M330.2,186.3l19.4,0.9c3.3-9.7,11.1-18.8,11.1-18.8s-1.7,1.5-5.8,1.7c-4.1,0.2-9.1-4.3-9.1-4.3h-6.3
					c0,0-7.4,4.3-12.2,4.3c-4.7,0-20.2-5.4-20.2-5.4s0,0,6.7,8.2c1.2,1.5,2.2,3.3,2.9,5.4c0.8-0.8,5.4-4.6,10.5-2.1
					C329.1,177.2,329.9,181.2,330.2,186.3z"/>
				<path class="st167" d="M330.3,186.3l19.4,0.9c-1,3.1-1.6,6.2-1.4,9.1c0.3,2.8,0.8,5.1,1.4,7.1c-6.9-0.7-13.9-1.9-19.8-3
					C330.3,195.9,330.5,190.7,330.3,186.3z"/>
				<path class="st167" d="M360.9,204.2c4.7,9,14.8,9.6,14.2,16c-0.2,2.4,0.5,4.7-3.1,5.8c-4.4,1.3-12.9,1-17,0.7
					c0.1-1.7,0.4-6.4,0.2-10.4c-0.1-3.8-3.4-6.4-5.5-12.8C353.5,203.9,357.3,204.1,360.9,204.2z"/>
				<path class="st48" d="M329.9,200.4c5.9,1.1,12.9,2.3,19.8,3c2,6.4,5.3,9,5.5,12.8c0.1,4-0.1,8.7-0.2,10.4
					c-1.5-0.1-2.4-0.2-2.4-0.2s-9.2-1-18.9-1.9c-0.8-2.1-1.6-3.8-2.4-5.3c-2.4-4.6-6.3-5-5.2-6.4c0.3-0.4,2.6-3.6,3-6.2
					C329.4,205,329.7,202.8,329.9,200.4z"/>
				<path class="st48" d="M360.7,204.2c-1.4-2.8-2.4-6.4-2.3-11.2c0-1.8,0.3-3.6,0.7-5.3l-9.6-0.5c-1,3.1-1.6,6.2-1.4,9.1
					c0.3,2.8,0.8,5.1,1.4,7.1C353.4,203.9,357.2,204.1,360.7,204.2z"/>
				<path class="st48" d="M318.6,185.7c0.6,4.2,0.8,8.6,0.6,12.4c2.5,0.6,6.2,1.4,10.7,2.2c0.4-4.5,0.6-9.7,0.4-14.1L318.6,185.7z"
					/>
				<path class="st167" d="M318.6,185.7c-0.4-2.6-1-5.1-1.8-7.4c0.8-0.8,5.4-4.6,10.5-2.1c1.9,0.9,2.7,5,3,10L318.6,185.7z"/>
				<path class="st167" d="M359,187.7c2.5-10.7,11.2-20,11.2-20s0.1-4.3-1.9-5.4c-2-1.1-7.8,2.5-14.8,1.7c-2.9-0.3-8.9-5-8.9-5
					s5-10.9-6.4-10.3s-6.1,10.3-6.1,10.3s-3.1,4.2-8.9,4.2c-5.9,0-11.4-2.5-11.4-2.5l-4.7,4.1c0,0,15.5,5.4,20.2,5.4
					c4.7,0,12.2-4.3,12.2-4.3h6.3c0,0,5,4.5,9.1,4.3c4.1-0.2,5.8-1.7,5.8-1.7s-7.8,9.1-11.1,18.8L359,187.7z"/>
				<path class="st48" d="M278,359.3c8.7-22.9,24.3-27.3,27.7-34l0,0c4.6,1.1,11.8,1.3,19.2,1.3l0,0.3c0.6,12.8,32,26.4,35.3,33.1
					c3.3,6.7-18.5,8-31.6,7.8C311.6,367.6,278,359.3,278,359.3z"/>
				<path class="st167" d="M277.4,372.9c-1.8-3.5-1.7-7.9,0.5-13.6c0,0,33.7,8.3,50.6,8.6c13.1,0.2,35-1.1,31.6-7.8
					c-3.3-6.7-34.8-20.3-35.3-33.1l0-0.3c3.3,0,6.8-0.1,10-0.2c4-0.1,8.7-0.6,13.3-1.2l0.1,0.4c0,0,4.7,17.3,20.9,27.3
					c16.2,10,16.9,14.8,13.7,19.3c-3.3,4.7-31.5,8.4-61.1,6.7c-23.7-1.3-43.8-5.9-43.8-5.9"/>
				<path class="st48" d="M348.2,325.6c0,0,4.7,17.3,20.9,27.3c16.2,10,16.9,14.8,13.7,19.3c-3.3,4.7-31.5,8.4-61.1,6.7
					c-23.7-1.3-43.8-5.9-43.8-5.9l-0.5-0.1c5.3,10.5,27.7,12.3,61.3,13.5c44.7,1.7,59.7-8.1,60-11.7c0.3-3.6-6.1-3.3-6.1-3.3
					s3.1-3.9,5.3-15.3s-23.4-15.1-25.4-19.3c-1.9-4,3.4-11.9,2.9-16.2l-0.1,0c0,0-13.9,3-27.2,4.7L348.2,325.6z"/>
			</g>
			<g>
				<path class="st167" d="M237.5,48.7c12.3,28.7,51,34.2,54.7,36.1c1.9,1,4.4,1.8,6.4,3c2.9-7.6,12.2-22.6,9.3-35.8
					c-3.3-14.9-19.3-35-42.4-46.1s-43.5,1.1-71.1,17.1c-2.1,1.2-4.2,2.5-6.1,3.8C200,22.3,225.2,20.1,237.5,48.7z"/>
				<path class="st167" d="M171.3,63.6c1.9-5.5,4.4-25.7,12.7-33.9c-20.8,14.5-31.7,30.2-33.9,37.3c-1.9,6-0.2,16.4,0.2,23.4
					C163.2,81.6,169.5,68.8,171.3,63.6z"/>
				<path class="st167" d="M210.3,257.1c-1.5-12.3-2.6-39.8,0.4-46.9c3-7.1,7.8-16.4,7.1-19c-0.7-2.6-20.1-5.6-20.5-10.7
					c-0.4-5.2,8.9-11.2,8.6-12.7c-0.2-0.8-2.2-2.9-4.4-4.6c0,0,0,0,0,0c-2.1-1.6-4.4-2.7-5.7-1.8c-2.6,1.9-13.4,11.2-16.7,8.9
					c-2.4-1.6-2.7-19.6-2.9-32.2c-0.4,0.1-0.8,0.1-1.2,0.2c-3.1,0.4-6.4,0.1-9.8-0.4c0.6,6.8,1.3,13.5,1.4,16.4
					c0.1,5.7,0.9,17.5,2.9,25.8c0,0,0,0,0,0c0.5,2.1,1.1,4,1.8,5.5c3.3,7.4,22,19,22.8,28.3s-7.5,38.3-6.1,62.1s3.1,53.2-2.9,55.1
					c-6,1.9-23.7-14.1-27.2-13c-3.4,1.1-6.7,45.2,3.4,53.2c11.6-0.4,48.3-17.1,53.9-30.1s0.4-29.4-0.4-42.8
					C214.1,285,211.8,269.4,210.3,257.1z"/>
				<path class="st48" d="M166.8,180.4c0.9,0,1.8-0.1,2.7-0.2c0.5,2.1,1.1,4,1.8,5.5c3.3,7.4,22,19,22.8,28.3
					c0.8,9.3-7.5,38.3-6.1,62.1s3.1,53.2-2.9,55.1c-6,1.9-23.7-14.1-27.2-13c-3.4,1.1-6.7,45.2,3.4,53.2
					c11.6-0.4,48.3-17.1,53.9-30.1c5.6-13,0.4-29.4-0.4-42.8c-0.7-13.4-3-29-4.5-41.3c-1.5-12.3-2.6-39.8,0.4-46.9
					c3-7.1,7.8-16.4,7.1-19c-0.7-2.6-20.1-5.6-20.5-10.7c-0.4-5.2,8.9-11.2,8.6-12.7c-0.2-0.8-2.2-2.9-4.4-4.6
					c2-1.5,3.7-2.8,4.9-3.8c1,2,1.9,4.1,3,6.1c1.9,3.4,5.4,5.6,8.4,8.2c3.3,2.7,6.1,5.9,6.1,11.5c0,10.8-4.7,15.3-5.2,22.1
					c-0.6,6.9-0.6,12.5-0.2,17.3c0.1,1.7,1,7.4,2.1,14.8c2.1,13.9,5.2,33.4,6.1,41.4c1.3,12.3,8,54.5-2.4,78.5
					c-10.4,24-22,37.2-37.4,35.7s-54.1-24.4-74.2-41.7S92,335.6,92.8,334.3c0.7-1.3,11.5-7.4,18.6-16c5.7-6.9,9.9-14.2,11.5-17.9
					c0.4-0.9,0.6-1.5,0.8-2c0.6-2.2,1.3-7.1,0.9-9.9c0,0,2.4-3,8.4,0.1c6.4,3.4,11.8,6.2,16.2,8.6c17,9.1,21.4,10.9,23.4,4.5
					c2.5-8.1-2.8-44.4-3.9-61.1c-1.1-16.7-2.6-23.3-4.2-32.7c-0.8-4.8-1.3-16-1.7-27.5h0c0.4,0,0.7,0,1.1,0
					C164.9,180.5,165.9,180.4,166.8,180.4"/>
				<path class="st48" d="M206.4,159.5c-2.3-4.8-4.8-8.9-10.5-10.6c-8.2-2.4-14.3,3.6-14.3,3.6s-0.2-6.9-1.2-15.4
					c-1.3,0.5-2.6,0.9-4.1,1.2c0.2,12.6,0.5,30.6,2.9,32.2c3.3,2.2,14.1-7.1,16.7-8.9c1.3-0.9,3.6,0.2,5.7,1.8
					C203.5,161.8,205.2,160.4,206.4,159.5z"/>
				<path class="st48" d="M163.9,180.5c-0.4,0-0.7,0-1.1,0c-0.4-11.1-0.6-22.3-1-28.3c-0.2-3.7-0.8-9.2-1.1-15.2
					c1.5,0.4,3,0.7,4.5,1c0.6,6.8,1.3,13.5,1.4,16.4c0.1,5.7,0.9,17.5,2.9,25.8c-0.9,0.1-1.8,0.1-2.7,0.2
					C165.9,180.4,164.9,180.5,163.9,180.5z"/>
				<path class="st167" d="M289.2,102.3c-5.6,0-16.4-4.1-22,0s-8.9,23.4-16.7,26c-7.8,2.6-17.1,0-27.2-3.7
					c-10-3.7-12.7-9.5-20.5-6.8c-6.8,2.4-12.1,14.8-22.6,19.2c1,8.6,1.2,15.4,1.2,15.4s6.1-6,14.3-3.6c5.8,1.7,8.2,5.8,10.5,10.6
					c1.3-1.1,2.1-1.7,2.1-1.7s13-16.7,19.3-17.9c6.3-1.1,12.3,11.5,21.2,7.8s18.2-18.6,20.8-20.1c2.6-1.5,13.4,9.7,15.6,8.6
					c2.2-1.1,7.4-13.8,8.6-22.3c0.6-4.7,1.3-9.4,2-13.7C294,101.5,291.5,102.3,289.2,102.3z"/>
				<path class="st48" d="M298.6,87.8c-0.4,1-0.7,1.8-0.8,2.6c-0.5,2.9-1.1,6.2-1.7,9.8c0,0,0,0,0,0c-2.2,1.3-4.6,2.1-6.9,2.1
					c-5.6,0-16.4-4.1-22,0s-8.9,23.4-16.7,26c-7.8,2.6-17.1,0-27.2-3.7c-10-3.7-12.7-9.5-20.5-6.8c-6.8,2.4-12.1,14.8-22.6,19.2
					c-0.9-7.7-2.4-16.9-4.9-23.5c-2.1-5.7-6.3-5.7-9.2-5.7c-6.3,0-6.3,15.6-5.5,29.2c-10.3-2.6-20.6-7.5-27.7-8.1
					c-6.8-0.6-17.4-0.5-26.8,0.9c14.1-10.2,34.8-25,36.8-26.3c2.2-1.5,5.6-2.2,7.1-7.1c0.4-1.3,0.4-3.4,0.2-6
					c12.9-8.8,19.2-21.6,21-26.7c1.9-5.5,4.4-25.7,12.7-33.9c1.4-1,2.8-1.9,4.2-2.9c11.7-4.5,37-6.7,49.3,21.9
					c12.3,28.7,51,34.2,54.7,36.1C294.1,85.8,296.6,86.6,298.6,87.8C298.6,87.8,298.6,87.8,298.6,87.8z"/>
				<path class="st167" d="M160.7,137c-0.8-13.6-0.8-29.2,5.5-29.2c2.9,0,7.1,0,9.2,5.7c2.5,6.7,4,15.8,4.9,23.5
					c-1.3,0.5-2.6,0.9-4.1,1.2c-0.1-5-0.1-9.1-0.3-11c-0.6-6.7-5-9.3-9.4-8.9c-2.5,0.2-2.1,10.1-1.4,19.6
					C163.7,137.7,162.2,137.4,160.7,137z"/>
				<path class="st48" d="M176.2,138.2c-0.1-5-0.1-9.1-0.3-11c-0.6-6.7-5-9.3-9.4-8.9c-2.5,0.2-2.1,10.1-1.4,19.6
					c3.4,0.6,6.7,0.8,9.8,0.4C175.4,138.4,175.8,138.3,176.2,138.2z"/>
				<path class="st167" d="M217.9,173.8c0,0,21.1,1.8,18.9,13c-2.2,11.2-8.8,39.6-16.1,52.7c-1.1-7.3-2-13.1-2.1-14.8
					c-0.4-4.8-0.4-10.4,0.2-17.3c0.6-6.9,5.2-11.3,5.2-22.1C223.9,179.8,221.1,176.6,217.9,173.8z"/>
				<path class="st48" d="M121,172.3c0,0-0.3,10.3,0,13c0.3,2.8-17.6,15.3-16.5,21.8c1.1,6.4,27.6,22.3,38.2,30.4
					c10.6,8.1,6.5,59.7,6.5,59.7c-4.5-2.4-9.8-5.3-16.2-8.6c-5.9-3.1-8.4-0.1-8.4-0.1c0.4,2.8-0.4,7.6-0.9,9.9
					c-0.1,0.4-0.4,1.1-0.8,2c0,0-87.6,17.6-98.8,2.5c-11.2-15.1-12.8-34.6,6.1-51.3s19.5-31.8,16.2-39.1s-9.1-27.1-22.7-32
					c5.1-7,10.7-13,16.6-18.3c31.9,15.6,32.9,67.5,26.2,79.1C59.8,252.9,33,268.8,34.7,275C36.4,281.1,59,278,59,278
					s33.8-0.8,42.7-1.4c8.9-0.6,16.7-2.5,19.3-7.3c2.5-4.7-2-12-2-12S99.2,211.9,92.6,194c-6.6-17.9,3-31.8,3-31.8L121,172.3"/>
				<path class="st167" d="M168.7,240.6c-1.1-16.7-2.6-23.3-4.2-32.7c-0.8-4.8-1.3-16-1.7-27.5c-0.7,0-1.3,0-2,0c0,0,0,0,0,0
					c0.7,0,1.3,0,2,0h0c-0.4-11.1-0.6-22.3-1-28.3c-0.2-3.7-0.8-9.2-1.1-15.2c-10.3-2.6-20.6-7.5-27.7-8.1
					c-6.8-0.6-17.4-0.5-26.8,0.9l0,0l-0.4,0.1c0,0-35.9,6.2-65.4,32.4l0,0c31.9,15.6,32.9,67.5,26.2,79.1S33,268.8,34.7,275
					S59,278,59,278s33.8-0.8,42.7-1.4c8.9-0.6,16.7-2.5,19.3-7.3c2.5-4.7-2-12-2-12S99.2,211.9,92.6,194c-6.6-17.9,3-31.8,3-31.8
					l0,0l42.9,17.1l-17.5-7l0,0c0,0-0.3,10.3,0,13c0.3,2.8-17.6,15.3-16.5,21.8c1.1,6.4,27.6,22.3,38.2,30.4
					c10.6,8.1,6.5,59.7,6.5,59.7c17,9.1,21.4,10.9,23.4,4.5C175.1,293.7,169.8,257.4,168.7,240.6z M97.5,136.4c-1.6,1.3-3,2.7-4.4,4
					c-0.7,0.7-1.4,1.3-2,2C93,140.4,95.2,138.3,97.5,136.4z M102.4,132.5c-0.9,0.6-1.7,1.3-2.5,1.9
					C100.7,133.7,101.6,133.1,102.4,132.5z M99.9,134.4c-0.8,0.6-1.6,1.3-2.4,2C98.3,135.7,99.1,135,99.9,134.4z M91.1,142.4
					c-1.3,1.3-2.5,2.6-3.6,3.8c-0.1,0.2-0.3,0.3-0.4,0.5C88.3,145.3,89.6,143.8,91.1,142.4z M86.7,147.1c-0.4,0.5-0.8,0.9-1.2,1.4
					C85.9,148,86.3,147.6,86.7,147.1z M85.3,148.7c-0.4,0.4-0.7,0.8-1,1.2C84.6,149.5,85,149.1,85.3,148.7z M84.1,150.1
					c-0.3,0.4-0.6,0.8-0.9,1.1C83.5,150.9,83.8,150.5,84.1,150.1z M83.1,151.4c-0.3,0.4-0.6,0.7-0.8,1
					C82.5,152.1,82.8,151.8,83.1,151.4z M79.7,155.9C79.7,155.9,79.8,155.9,79.7,155.9C79.8,155.9,79.7,155.9,79.7,155.9l8.3,3.3
					L79.7,155.9z M82.2,152.6c-0.2,0.2-0.3,0.4-0.5,0.6C81.9,153,82,152.8,82.2,152.6z M81.5,153.4c-0.1,0.1-0.2,0.3-0.3,0.4
					C81.3,153.7,81.4,153.5,81.5,153.4z M81.1,154c-0.1,0.1-0.2,0.3-0.3,0.4C80.9,154.3,81,154.2,81.1,154z M80.7,154.5
					c-0.2,0.3-0.4,0.6-0.6,0.8C80.3,155.1,80.5,154.9,80.7,154.5z M80.1,155.4c-0.1,0.1-0.1,0.1-0.1,0.2
					C80,155.6,80,155.5,80.1,155.4z M79.9,155.7c0,0.1-0.1,0.1-0.1,0.1C79.8,155.8,79.8,155.8,79.9,155.7z M103.6,131.6
					c0.3-0.2,0.5-0.4,0.8-0.6l-0.3,0.2C103.9,131.4,103.8,131.5,103.6,131.6z"/>
				<path class="st167" d="M115.7,356.1c-1.1-0.9-2.1-1.8-3.1-2.6c-20.1-17.3-20.7-17.9-19.9-19.2c0.7-1.3,11.5-7.4,18.6-16
					c5.7-6.9,9.9-14.2,11.5-17.9c0,0-87.6,17.6-98.8,2.5c-11.2-15.1-12.8-34.6,6.1-51.3s19.5-31.8,16.2-39.1s-9.1-27.1-22.7-32
					c-11.7,16.1-20.2,37.1-21.4,64.3c-4.2,98,55.5,83.7,88,108c0,0,14.7,10.9,25,3.6"/>
			</g>
		</g>
	</g>
</g>
</svg>
