<?xml version="1.0" encoding="utf-8"?>
<!-- Generator: Adobe Illustrator 23.0.4, SVG Export Plug-In . SVG Version: 6.00 Build 0)  -->
<svg version="1.1" xmlns="http://www.w3.org/2000/svg" xmlns:xlink="http://www.w3.org/1999/xlink" x="0px" y="0px"
	 viewBox="0 0 1301.6 406.3" style="enable-background:new 0 0 1301.6 406.3;" xml:space="preserve">
<style type="text/css">
	.st0{display:none;}
	.st1{fill:none;stroke:#000000;stroke-miterlimit:10;}
</style>
<g id="Ebene_2" class="st0">
</g>
<g id="Ebene_1">
	<g>
		<path d="M454.1,118.1c3.7,3,5.5,8,5.5,15v37.6h-15v-34c0-2.9-0.4-5.2-1.2-6.8c-1.4-2.9-4.1-4.3-8.1-4.3c-4.9,0-8.3,2.1-10.1,6.3
			c-1,2.2-1.4,5.1-1.4,8.5v30.2h-14.6V115h14.2v8.2c1.9-2.9,3.6-4.9,5.3-6.2c3-2.3,6.8-3.4,11.4-3.4
			C445.8,113.6,450.5,115.1,454.1,118.1z"/>
		<path d="M468.8,134.6h28.6v13.8h-28.6V134.6z"/>
		<path d="M539.4,116.9c1.7,1.3,3.4,3.4,5.1,6.4V115h14.1v77.9h-14.5v-29.1c-1.1,2.3-3,4.3-5.6,6c-2.6,1.8-6.3,2.6-10.8,2.6
			c-6.5,0-12-2.6-16.5-7.7c-4.5-5.2-6.8-12.1-6.8-20.7c0-9.3,2.3-16.7,6.8-22.3c4.6-5.6,10.2-8.4,16.9-8.4
			C532.8,113.4,536.6,114.6,539.4,116.9z M542.6,153.6c1.4-2.8,2.1-6.4,2.1-10.8c0-3.4-0.6-6.5-1.7-9.2c-2.1-4.9-5.8-7.3-11-7.3
			c-3.7,0-6.7,1.4-8.9,4.3c-2.2,2.8-3.4,7.2-3.4,12.9c0,3.9,0.5,7,1.5,9.5c1.9,4.7,5.5,7,10.7,7C536.9,160,540.4,157.9,542.6,153.6z
			"/>
		<path d="M586.9,114.9v33.7c0,3.2,0.4,5.6,1.1,7.2c1.3,2.8,3.9,4.3,7.8,4.3c5,0,8.4-2,10.2-6c1-2.2,1.4-5.1,1.4-8.7v-30.4h14.8
			v55.9H608v-7.9c-0.1,0.2-0.5,0.7-1,1.5c-0.5,0.9-1.2,1.6-1.9,2.3c-2.3,2.1-4.5,3.5-6.6,4.2c-2.1,0.8-4.6,1.1-7.5,1.1
			c-8.2,0-13.8-3-16.7-8.9c-1.6-3.3-2.4-8.1-2.4-14.5v-33.7H586.9z"/>
		<path d="M670.8,116c3.9,1.7,7.1,4.5,9.7,8.3c2.3,3.3,3.8,7.2,4.5,11.6c0.4,2.6,0.6,6.3,0.5,11.1h-40.7c0.2,5.6,2.2,9.5,5.8,11.8
			c2.2,1.4,4.9,2.1,8.1,2.1c3.3,0,6-0.9,8.1-2.6c1.1-0.9,2.1-2.2,3-3.8h14.9c-0.4,3.3-2.2,6.7-5.4,10.1c-5,5.4-12,8.2-21,8.2
			c-7.4,0-14-2.3-19.7-6.9c-5.7-4.6-8.5-12-8.5-22.4c0-9.7,2.6-17.1,7.7-22.3c5.1-5.2,11.8-7.7,20-7.7
			C662.5,113.4,666.9,114.3,670.8,116z M648.9,128.7c-2.1,2.1-3.4,5-3.9,8.7h25.2c-0.3-3.9-1.6-6.8-3.9-8.8c-2.3-2-5.2-3-8.7-3
			C653.9,125.5,651,126.5,648.9,128.7z"/>
		<path d="M733.3,116c3.9,1.7,7.1,4.5,9.7,8.3c2.3,3.3,3.8,7.2,4.5,11.6c0.4,2.6,0.6,6.3,0.5,11.1h-40.7c0.2,5.6,2.2,9.5,5.8,11.8
			c2.2,1.4,4.9,2.1,8.1,2.1c3.3,0,6-0.9,8.1-2.6c1.1-0.9,2.1-2.2,3-3.8h14.9c-0.4,3.3-2.2,6.7-5.4,10.1c-5,5.4-12,8.2-21,8.2
			c-7.4,0-14-2.3-19.7-6.9c-5.7-4.6-8.5-12-8.5-22.4c0-9.7,2.6-17.1,7.7-22.3c5.1-5.2,11.8-7.7,20-7.7
			C725.1,113.4,729.5,114.3,733.3,116z M711.5,128.7c-2.1,2.1-3.4,5-3.9,8.7h25.2c-0.3-3.9-1.6-6.8-3.9-8.8c-2.3-2-5.2-3-8.7-3
			C716.5,125.5,713.6,126.5,711.5,128.7z"/>
		<path d="M800.4,118.1c3.7,3,5.5,8,5.5,15v37.6h-15v-34c0-2.9-0.4-5.2-1.2-6.8c-1.4-2.9-4.1-4.3-8.1-4.3c-4.9,0-8.3,2.1-10.1,6.3
			c-1,2.2-1.4,5.1-1.4,8.5v30.2h-14.6V115h14.2v8.2c1.9-2.9,3.6-4.9,5.3-6.2c3-2.3,6.8-3.4,11.4-3.4
			C792,113.6,796.7,115.1,800.4,118.1z"/>
		<path d="M828.7,153c0.3,2.6,1,4.4,2,5.5c1.8,1.9,5.2,2.9,10.1,2.9c2.9,0,5.2-0.4,6.9-1.3c1.7-0.9,2.5-2.1,2.5-3.8
			c0-1.6-0.7-2.9-2.1-3.7c-1.4-0.9-6.5-2.3-15.3-4.4c-6.4-1.6-10.8-3.5-13.4-5.9c-2.6-2.3-3.9-5.7-3.9-10c0-5.2,2-9.6,6.1-13.3
			c4.1-3.7,9.8-5.6,17.1-5.6c7,0,12.7,1.4,17.1,4.2c4.4,2.8,6.9,7.6,7.6,14.4h-14.6c-0.2-1.9-0.7-3.4-1.6-4.5c-1.6-2-4.4-3-8.2-3
			c-3.2,0-5.5,0.5-6.8,1.5c-1.4,1-2,2.2-2,3.5c0,1.7,0.7,2.9,2.2,3.6c1.4,0.8,6.5,2.1,15.3,4c5.8,1.4,10.2,3.4,13.1,6.2
			c2.9,2.8,4.3,6.3,4.3,10.5c0,5.5-2.1,10.1-6.2,13.6c-4.1,3.5-10.5,5.3-19.1,5.3c-8.8,0-15.3-1.9-19.5-5.6
			c-4.2-3.7-6.3-8.4-6.3-14.2H828.7z"/>
		<path d="M947.7,120.9c4.6,4.8,6.8,11.9,6.8,21.2c0,9.8-2.2,17.3-6.7,22.5c-4.5,5.2-10.2,7.7-17.2,7.7c-4.5,0-8.2-1.1-11.1-3.3
			c-1.6-1.2-3.2-3-4.7-5.4v29.1h-14.5v-77.9h14v8.3c1.6-2.4,3.3-4.3,5.1-5.7c3.3-2.5,7.2-3.7,11.7-3.7
			C937.6,113.7,943.2,116.1,947.7,120.9z M936.5,131.4c-2-3.3-5.2-5-9.7-5c-5.4,0-9,2.5-11,7.5c-1,2.7-1.6,6-1.6,10.2
			c0,6.5,1.7,11.1,5.2,13.7c2.1,1.5,4.5,2.3,7.4,2.3c4.1,0,7.2-1.6,9.4-4.7c2.2-3.1,3.2-7.3,3.2-12.6
			C939.5,138.6,938.5,134.7,936.5,131.4z"/>
		<path d="M995.9,113.6c0.2,0,0.6,0,1.3,0.1v15c-0.9-0.1-1.7-0.2-2.5-0.2c-0.7,0-1.3-0.1-1.7-0.1c-5.9,0-9.8,1.9-11.8,5.7
			c-1.1,2.2-1.7,5.5-1.7,9.9v26.7h-14.7v-55.9h13.9v9.7c2.3-3.7,4.2-6.3,5.9-7.6c2.7-2.3,6.3-3.4,10.7-3.4
			C995.5,113.6,995.7,113.6,995.9,113.6z"/>
		<path d="M1050.2,164c-4.7,5.8-11.9,8.7-21.5,8.7c-9.6,0-16.8-2.9-21.5-8.7s-7.1-12.8-7.1-21c0-8.1,2.4-15,7.1-21
			s11.9-8.9,21.5-8.9c9.6,0,16.8,3,21.5,8.9s7.1,12.9,7.1,21C1057.3,151.1,1055,158.1,1050.2,164z M1038.6,155.9
			c2.3-3,3.4-7.4,3.4-13c0-5.6-1.1-9.9-3.4-12.9c-2.3-3-5.6-4.5-9.8-4.5c-4.3,0-7.6,1.5-9.9,4.5c-2.3,3-3.5,7.3-3.5,12.9
			c0,5.6,1.2,9.9,3.5,13c2.3,3,5.6,4.6,9.9,4.6C1033,160.4,1036.3,158.9,1038.6,155.9z"/>
		<path d="M1115.5,121.6c4.2,5.3,6.3,12.1,6.3,20.5c0,8.7-2.1,15.9-6.2,21.6c-4.1,5.7-9.9,8.6-17.3,8.6c-4.6,0-8.4-0.9-11.2-2.8
			c-1.7-1.1-3.5-3-5.5-5.7v7h-14.4V95.3h14.6v26.9c1.9-2.6,3.9-4.6,6.1-5.9c2.6-1.7,6-2.6,10.1-2.6
			C1105.5,113.7,1111.3,116.3,1115.5,121.6z M1103.3,155.7c2.1-3,3.2-7,3.2-12c0-4-0.5-7.2-1.6-9.8c-2-4.9-5.6-7.4-10.9-7.4
			c-5.3,0-9,2.4-11,7.2c-1,2.6-1.6,5.9-1.6,9.9c0,4.8,1.1,8.8,3.2,11.9c2.1,3.1,5.4,4.7,9.8,4.7
			C1098.2,160.2,1101.2,158.7,1103.3,155.7z"/>
		<path d="M1144.7,170.8h-14.6V95.2h14.6V170.8z"/>
		<path d="M1195.4,116c3.9,1.7,7.1,4.5,9.7,8.3c2.3,3.3,3.8,7.2,4.5,11.6c0.4,2.6,0.6,6.3,0.5,11.1h-40.7c0.2,5.6,2.2,9.5,5.8,11.8
			c2.2,1.4,4.9,2.1,8.1,2.1c3.3,0,6-0.9,8.1-2.6c1.1-0.9,2.1-2.2,3-3.8h14.9c-0.4,3.3-2.2,6.7-5.4,10.1c-5,5.4-12,8.2-21,8.2
			c-7.4,0-14-2.3-19.7-6.9c-5.7-4.6-8.5-12-8.5-22.4c0-9.7,2.6-17.1,7.7-22.3c5.1-5.2,11.8-7.7,20-7.7
			C1187.1,113.4,1191.5,114.3,1195.4,116z M1173.5,128.7c-2.1,2.1-3.4,5-3.9,8.7h25.2c-0.3-3.9-1.6-6.8-3.9-8.8c-2.3-2-5.2-3-8.7-3
			C1178.5,125.5,1175.6,126.5,1173.5,128.7z"/>
		<path d="M1287.1,115.1c2.4,1,4.6,2.6,6.5,5c1.6,1.9,2.6,4.3,3.2,7.2c0.3,1.9,0.5,4.6,0.5,8.3l-0.1,35.2h-15v-35.6
			c0-2.1-0.3-3.9-1-5.2c-1.3-2.6-3.7-3.9-7.2-3.9c-4,0-6.8,1.7-8.4,5c-0.8,1.8-1.2,3.9-1.2,6.4v33.3h-14.7v-33.3
			c0-3.3-0.3-5.7-1-7.2c-1.2-2.7-3.6-4-7.2-4c-4.2,0-7,1.4-8.4,4c-0.8,1.5-1.2,3.8-1.2,6.9v33.6h-14.8V115h14.2v8.2
			c1.8-2.9,3.5-5,5.1-6.2c2.8-2.2,6.5-3.3,11-3.3c4.3,0,7.7,0.9,10.4,2.8c2.1,1.7,3.7,4,4.8,6.7c1.9-3.3,4.3-5.7,7.1-7.2
			c3-1.5,6.4-2.3,10-2.3C1282.3,113.7,1284.7,114.2,1287.1,115.1z"/>
	</g>
	<g>
		<path d="M378.1,5.3c6.7-0.8,13.7,0.5,21.1,4.1c9.8,4.7,16.7,10.9,20.9,18.7c4.2,7.8,4.1,16.2-0.3,25.4c-2.7,5.6-6.4,9.7-11,12.2
			c-2.8,1.5-7.3,3-13.7,4.4l-6.3,1.4c-3.4,0.7-6.2,2.2-8.2,4.4c-1.3,1.4-2.8,3.8-4.5,7.2l-17.5-8.4c3.8-7.2,6.9-11.9,9.3-14.1
			c2.5-2.2,6.9-4.1,13.3-5.5l6.5-1.4c2.1-0.4,4-1.1,5.6-2c2.9-1.5,5-3.7,6.4-6.6c1.6-3.3,2.1-6.7,1.4-10.4c-0.6-3.6-3.5-6.7-8.6-9.1
			c-5-2.4-9.3-2.4-13-0.1c-3.7,2.3-6.4,5.3-8.1,8.9l-18.7-9C359.1,13.2,367.6,6.5,378.1,5.3z M353.8,83.2l19.4,9.3l-9,18.7
			l-19.4-9.3L353.8,83.2z"/>
	</g>
	<g>
		<g>
			<path class="st1" d="M127.9,293.7c0,0,2.4-3,8.4,0.1c30.8,16.2,37.1,21.2,39.6,13.1c2.5-8.1-2.8-44.4-3.9-61.1
				c-1.1-16.7-2.6-23.3-4.2-32.7s-1.9-43.7-2.7-55.8c-0.8-12.2-4.7-44.4,4.4-44.4c2.9,0,7.1,0,9.2,5.7c5.3,14.1,6.1,39,6.1,39
				s6.1-6,14.3-3.6c8.2,2.4,9.7,9.7,13.6,16.7s14.5,8.9,14.5,19.7c0,10.8-4.7,15.3-5.2,22.1s-0.6,12.5-0.2,17.3
				c0.4,4.8,6.9,43.9,8.2,56.2s8,54.5-2.4,78.5c-10.4,24-22,37.2-37.4,35.7s-54.1-24.4-74.2-41.7c-20.1-17.3-20.7-17.9-19.9-19.2
				c0.7-1.3,11.5-7.4,18.6-16c7.1-8.6,11.7-17.7,12.3-19.9C127.6,301.3,128.3,296.5,127.9,293.7z"/>
			<path class="st1" d="M83.1,161c0,0,8.9-13.4,22.7-23.4s38.3-27.5,40.6-29c2.2-1.5,5.6-2.2,7.1-7.1c1.5-4.8-2.6-21.2,0-29.4
				s16.7-27.9,44.3-43.9s48-28.3,71.1-17.1c23.1,11.2,39.1,31.3,42.4,46.1c3.3,14.9-8.9,32-10,38.3c-1.1,6.3-2.6,14.9-3.7,23.4
				s-6.3,21.2-8.6,22.3c-2.2,1.1-13-10-15.6-8.6s-11.9,16.4-20.8,20.1s-14.9-8.9-21.2-7.8c-6.3,1.1-19.3,17.9-19.3,17.9
				s-23.1,19-33.1,21.6s-36.8,0-36.8,0L83.1,161z"/>
			<g>
				<path class="st1" d="M292.6,107.5c-5.6,0-16.4-4.1-22,0c-5.6,4.1-8.9,23.4-16.7,26c-7.8,2.6-17.1,0-27.2-3.7
					c-10-3.7-12.7-9.5-20.5-6.8c-7.8,2.7-13.8,19-27.9,20.6c-14.1,1.6-31.6-8.6-42-9.6c-6.8-0.6-17.4-0.5-26.8,0.9
					c-1.3,0.9-2.5,1.8-3.7,2.7C92,147.7,83.1,161,83.1,161l58.8,23.4c0,0,26.8,2.6,36.8,0c10-2.6,33.1-21.6,33.1-21.6
					s13-16.7,19.3-17.9c6.3-1.1,12.3,11.5,21.2,7.8s18.2-18.6,20.8-20.1c2.6-1.5,13.4,9.7,15.6,8.6c2.2-1.1,7.4-13.8,8.6-22.3
					c0.6-4.7,1.3-9.4,2-13.7C297.3,106.6,294.8,107.5,292.6,107.5z"/>
				<path class="st1" d="M240.9,53.9c12.3,28.7,51,34.2,54.7,36.1c1.9,1,4.4,1.8,6.4,3c2.9-7.6,12.2-22.6,9.3-35.8
					c-3.3-14.9-19.3-35-42.4-46.1s-43.5,1.1-71.1,17.1c-2.1,1.2-4.2,2.5-6.1,3.8C203.3,27.5,228.6,25.3,240.9,53.9z"/>
				<path class="st1" d="M174.6,68.8c1.9-5.5,4.4-25.7,12.7-33.9c-20.8,14.5-31.7,30.2-33.9,37.3c-1.9,6-0.2,16.4,0.2,23.4
					C166.6,86.7,172.8,73.9,174.6,68.8z"/>
			</g>
			<path class="st1" d="M161.2,323.3c3.4-1.1,21.2,14.9,27.2,13c6-1.9,4.3-31.3,2.9-55.1c-1.4-23.8,7-52.8,6.1-62.1
				c-0.8-9.3-19.5-20.8-22.8-28.3c-3.3-7.4-4.6-24.2-4.7-31.3c-0.1-7.1-4.3-35.7,0-36.1c4.3-0.4,8.8,2.2,9.4,8.9s-0.2,40.9,3.2,43.2
				c3.3,2.2,14.1-7.1,16.7-8.9s9.7,4.8,10,6.3c0.4,1.5-8.9,7.5-8.6,12.7c0.4,5.2,19.7,8.1,20.5,10.7s-4.1,11.9-7.1,19
				c-3,7.1-1.9,34.6-0.4,46.9c1.5,12.3,3.7,27.9,4.5,41.3s6,29.8,0.4,42.8c-5.6,13-42.3,29.8-53.9,30.1
				C154.5,368.5,157.8,324.4,161.2,323.3z"/>
			<path class="st1" d="M152.5,302.4c0,0,4.1-51.6-6.5-59.7c-10.6-8.1-37.1-24-38.2-30.4s16.7-19,16.5-21.8c-0.3-2.8,0-13,0-13"/>
			<path class="st1" d="M99,167.4c0,0-9.6,14-3,31.8s26.4,63.3,26.4,63.3s4.5,7.3,2,12c-2.5,4.7-10.3,6.7-19.3,7.3
				s-42.7,1.4-42.7,1.4s-22.6,3.1-24.3-3.1c-1.7-6.1,25.1-22,31.8-33.6s5.7-63.5-26.2-79.1"/>
			<path class="st1" d="M109.1,135c0,0-99.3,17-103.4,115s55.5,83.7,88,108c0,0,14.7,10.9,25,3.6"/>
			<path class="st1" d="M126.3,305.5c0,0-87.6,17.6-98.8,2.5c-11.2-15.1-12.8-34.6,6.1-51.3c19-16.8,19.5-31.8,16.2-39.1
				s-9.1-27.1-22.7-32"/>
			<path class="st1" d="M221.2,179c0,0,21.1,1.8,18.9,13c-2.2,11.2-8.8,39.6-16.1,52.7"/>
		</g>
		<g>
			<path class="st1" d="M372.3,325.5c0,0-24.4,5.2-40,5.8c-15.6,0.6-34,0.6-34.6-4.5s18.9-30.9,21.8-45.2
				c3.1-15.3,0.6-52.5,0.6-52.5"/>
			<path class="st1" d="M304.4,169.6c0,0,0,0,6.7,8.2c6.7,8.2,6,27.9,4.1,34.2c-1.9,6.3-15.5,4.3-14.9,10.8c0.7,6.5,3,4.5,13.8,5.2
				c10.8,0.7,35.7,3.3,35.7,3.3s13.4,1.3,19.4-0.5c3.6-1.1,2.9-3.4,3.1-5.8c0.7-8.4-16.8-6.8-16.5-27.2
				c0.2-12.7,11.9-25.3,11.9-25.3s0.1-4.3-1.9-5.4c-2-1.1-7.8,2.5-14.8,1.7c-2.9-0.3-8.9-5-8.9-5s5-10.9-6.4-10.3
				s-6.1,10.3-6.1,10.3s-3.1,4.2-8.9,4.2s-11.4-2.5-11.4-2.5L304.4,169.6z"/>
			<path class="st1" d="M305.5,195.7c-1.9,5.6,7.8,6.7,7.8,6.7s58.5,14.3,62,1.2c2.5-9.2-9.2-10.5-9.2-10.5l-54-2.6
				C312.2,190.5,307.4,190.1,305.5,195.7z"/>
			<path class="st1" d="M313.9,183.4c0,0,5-5,10.6-2.2c4.4,2.2,3.3,21.4,1.9,30.5c-0.4,2.6-2.6,5.8-3,6.2c-1.1,1.3,2.7,1.7,5.2,6.4
				c2.8,5.3,6.2,14.4,6,30.9c-0.3,20.7-8.7,62.8-11.7,63.9s-12.6,1.7-13.4-0.6c-0.8-2.2,7.7-29.6,7.7-29.6"/>
			<path class="st1" d="M275.4,364.2c0,0,33.7,8.3,50.6,8.6c13.1,0.2,35-1.1,31.6-7.8c-3.3-6.7-34.8-20.3-35.3-33.1"/>
			<path class="st1" d="M345.7,330.5c0,0,4.7,17.3,20.9,27.3c16.2,10,16.9,14.8,13.7,19.3c-3.3,4.7-31.5,8.4-61.1,6.7
				c-23.7-1.3-43.8-5.9-43.8-5.9"/>
			<path class="st1" d="M304.4,169.6c0,0,15.5,5.4,20.2,5.4c4.7,0,12.2-4.3,12.2-4.3h6.3c0,0,5,4.5,9.1,4.3c4.1-0.2,5.8-1.7,5.8-1.7
				s-13.6,15.8-12.5,27.9s6.7,14.9,6.9,19.9c0.2,5-0.3,11.1-0.3,11.1s-5.9,30.1-3.6,44.7s23.2,43.8,24.3,48s-4.7,12.6-2.8,16.7
				c2,4.2,27.6,7.8,25.4,19.3c-2.2,11.4-5.3,15.3-5.3,15.3s6.4-0.3,6.1,3.3c-0.3,3.6-15.3,13.4-60,11.7
				c-44.7-1.7-69.5-4.2-60.8-27.1c8.7-22.9,24-26.8,27.3-33.5"/>
		</g>
	</g>
</g>
</svg>
